<?xml version="1.0" encoding="UTF-8"?>
<svg id="Ebene_2" data-name="Ebene 2" xmlns="http://www.w3.org/2000/svg" viewBox="0 0 1183.77 51.6">
  <defs>
    <style>
      .cls-1 {
        fill: none;
        stroke: #0147b1;
        stroke-width: 3px;
      }
    </style>
  </defs>
  <g id="Ebene_1-2" data-name="Ebene 1">
    <line class="cls-1" x1="1.5" y1="33.24" x2="1.5" y2="20.12"/>
    <line class="cls-1" x1="10.25" y1="42.86" x2="10.25" y2="10.5"/>
    <line class="cls-1" x1="18.99" y1="37.61" x2="18.99" y2="14.87"/>
    <line class="cls-1" x1="27.74" y1="33.24" x2="27.74" y2="20.12"/>
    <line class="cls-1" x1="36.49" y1="40.23" x2="36.49" y2="14.87"/>
    <line class="cls-1" x1="45.23" y1="48.11" x2="45.23" y2="2.62"/>
    <line class="cls-1" x1="53.98" y1="42.86" x2="53.98" y2="10.5"/>
    <line class="cls-1" x1="62.72" y1="37.61" x2="62.72" y2="14.87"/>
    <line class="cls-1" x1="71.47" y1="31.49" x2="71.47" y2="21.87"/>
    <line class="cls-1" x1="80.22" y1="33.24" x2="80.22" y2="20.12"/>
    <line class="cls-1" x1="88.96" y1="32.36" x2="88.96" y2="21.87"/>
    <line class="cls-1" x1="97.71" y1="37.61" x2="97.71" y2="15.74"/>
    <line class="cls-1" x1="106.46" y1="39.36" x2="106.46" y2="11.37"/>
    <line class="cls-1" x1="115.2" y1="51.6" x2="115.2"/>
    <line class="cls-1" x1="123.95" y1="51.6" x2="123.95"/>
    <line class="cls-1" x1="132.7" y1="51.6" x2="132.7"/>
    <line class="cls-1" x1="141.44" y1="48.11" x2="141.44" y2="2.62"/>
    <line class="cls-1" x1="150.19" y1="40.23" x2="150.19" y2="10.5"/>
    <line class="cls-1" x1="158.94" y1="35.86" x2="158.94" y2="16.62"/>
    <line class="cls-1" x1="167.68" y1="33.24" x2="167.68" y2="20.12"/>
    <line class="cls-1" x1="176.43" y1="33.24" x2="176.43" y2="20.12"/>
    <line class="cls-1" x1="185.17" y1="29.74" x2="185.17" y2="22.74"/>
    <line class="cls-1" x1="193.92" y1="28.86" x2="193.92" y2="24.49"/>
    <line class="cls-1" x1="202.67" y1="27.99" x2="202.67" y2="25.36"/>
    <line class="cls-1" x1="211.41" y1="28.86" x2="211.41" y2="24.49"/>
    <line class="cls-1" x1="220.16" y1="28.86" x2="220.16" y2="25.36"/>
    <line class="cls-1" x1="228.91" y1="29.74" x2="228.91" y2="23.62"/>
    <line class="cls-1" x1="237.65" y1="34.11" x2="237.65" y2="18.37"/>
    <line class="cls-1" x1="246.4" y1="41.98" x2="246.4" y2="11.37"/>
    <line class="cls-1" x1="255.15" y1="30.61" x2="255.15" y2="22.74"/>
    <line class="cls-1" x1="263.89" y1="37.61" x2="263.89" y2="14.87"/>
    <line class="cls-1" x1="272.64" y1="43.73" x2="272.64" y2="8.75"/>
    <line class="cls-1" x1="281.39" y1="40.23" x2="281.39" y2="13.99"/>
    <line class="cls-1" x1="290.13" y1="33.24" x2="290.13" y2="20.12"/>
    <line class="cls-1" x1="298.88" y1="44.61" x2="298.88" y2="8.75"/>
    <line class="cls-1" x1="307.62" y1="39.36" x2="307.62" y2="15.74"/>
    <line class="cls-1" x1="316.37" y1="33.24" x2="316.37" y2="20.12"/>
    <line class="cls-1" x1="325.12" y1="33.24" x2="325.12" y2="20.12"/>
    <line class="cls-1" x1="333.86" y1="30.61" x2="333.86" y2="22.74"/>
    <line class="cls-1" x1="342.61" y1="35.86" x2="342.61" y2="18.37"/>
    <line class="cls-1" x1="351.36" y1="45.48" x2="351.36" y2="7.87"/>
    <line class="cls-1" x1="360.1" y1="40.23" x2="360.1" y2="13.99"/>
    <line class="cls-1" x1="368.85" y1="33.24" x2="368.85" y2="20.12"/>
    <line class="cls-1" x1="377.6" y1="30.61" x2="377.6" y2="22.74"/>
    <line class="cls-1" x1="386.34" y1="35.86" x2="386.34" y2="15.74"/>
    <line class="cls-1" x1="395.09" y1="33.24" x2="395.09" y2="18.37"/>
    <line class="cls-1" x1="403.84" y1="38.48" x2="403.84" y2="14.87"/>
    <line class="cls-1" x1="412.58" y1="47.23" x2="412.58" y2="6.12"/>
    <line class="cls-1" x1="421.33" y1="43.73" x2="421.33" y2="9.62"/>
    <line class="cls-1" x1="430.07" y1="46.36" x2="430.07" y2="7"/>
    <line class="cls-1" x1="438.82" y1="42.86" x2="438.82" y2="12.24"/>
    <line class="cls-1" x1="447.57" y1="51.6" x2="447.57"/>
    <line class="cls-1" x1="456.31" y1="33.24" x2="456.31" y2="20.12"/>
    <line class="cls-1" x1="465.06" y1="45.48" x2="465.06" y2="7.87"/>
    <line class="cls-1" x1="473.81" y1="41.98" x2="473.81" y2="13.99"/>
    <line class="cls-1" x1="482.55" y1="33.24" x2="482.55" y2="20.12"/>
    <line class="cls-1" x1="491.3" y1="36.73" x2="491.3" y2="17.49"/>
    <line class="cls-1" x1="500.05" y1="38.48" x2="500.05" y2="14.87"/>
    <line class="cls-1" x1="508.79" y1="42.86" x2="508.79" y2="11.37"/>
    <line class="cls-1" x1="517.54" y1="33.24" x2="517.54" y2="20.12"/>
    <line class="cls-1" x1="789.55" y1="36.73" x2="789.55" y2="16.62"/>
    <line class="cls-1" x1="526.29" y1="38.48" x2="526.29" y2="13.99"/>
    <line class="cls-1" x1="535.03" y1="29.74" x2="535.03" y2="22.74"/>
    <line class="cls-1" x1="543.78" y1="29.74" x2="543.78" y2="22.74"/>
    <line class="cls-1" x1="552.52" y1="28.86" x2="552.52" y2="24.49"/>
    <line class="cls-1" x1="561.27" y1="28.86" x2="561.27" y2="24.49"/>
    <line class="cls-1" x1="570.02" y1="33.24" x2="570.02" y2="20.12"/>
    <line class="cls-1" x1="578.76" y1="37.61" x2="578.76" y2="16.62"/>
    <line class="cls-1" x1="587.51" y1="33.24" x2="587.51" y2="20.12"/>
    <line class="cls-1" x1="596.26" y1="31.49" x2="596.26" y2="21.87"/>
    <line class="cls-1" x1="605" y1="35.86" x2="605" y2="17.49"/>
    <line class="cls-1" x1="613.75" y1="33.24" x2="613.75" y2="20.12"/>
    <line class="cls-1" x1="622.5" y1="31.49" x2="622.5" y2="21.87"/>
    <line class="cls-1" x1="631.24" y1="33.24" x2="631.24" y2="20.12"/>
    <line class="cls-1" x1="639.99" y1="33.24" x2="639.99" y2="20.12"/>
    <line class="cls-1" x1="648.74" y1="36.73" x2="648.74" y2="19.24"/>
    <line class="cls-1" x1="657.48" y1="41.11" x2="657.48" y2="14.87"/>
    <line class="cls-1" x1="666.23" y1="38.48" x2="666.23" y2="16.62"/>
    <line class="cls-1" x1="674.97" y1="38.48" x2="674.97" y2="16.62"/>
    <line class="cls-1" x1="683.72" y1="33.24" x2="683.72" y2="20.12"/>
    <line class="cls-1" x1="692.47" y1="30.61" x2="692.47" y2="23.62"/>
    <line class="cls-1" x1="701.21" y1="30.61" x2="701.21" y2="22.74"/>
    <line class="cls-1" x1="709.96" y1="30.61" x2="709.96" y2="21.87"/>
    <line class="cls-1" x1="718.71" y1="28.86" x2="718.71" y2="24.49"/>
    <line class="cls-1" x1="727.45" y1="28.86" x2="727.45" y2="24.49"/>
    <line class="cls-1" x1="736.2" y1="29.74" x2="736.2" y2="23.62"/>
    <line class="cls-1" x1="744.95" y1="29.74" x2="744.95" y2="23.62"/>
    <line class="cls-1" x1="753.69" y1="29.74" x2="753.69" y2="22.74"/>
    <line class="cls-1" x1="762.44" y1="29.74" x2="762.44" y2="23.62"/>
    <line class="cls-1" x1="771.19" y1="28.86" x2="771.19" y2="24.49"/>
    <line class="cls-1" x1="779.93" y1="30.61" x2="779.93" y2="21.87"/>
    <line class="cls-1" x1="973.23" y1="44.61" x2="973.23" y2="11.37"/>
    <line class="cls-1" x1="964.48" y1="41.11" x2="964.48" y2="14.87"/>
    <line class="cls-1" x1="946.99" y1="44.61" x2="946.99" y2="7"/>
    <line class="cls-1" x1="955.73" y1="34.99" x2="955.73" y2="20.12"/>
    <line class="cls-1" x1="981.97" y1="44.61" x2="981.97" y2="11.37"/>
    <line class="cls-1" x1="990.72" y1="41.11" x2="990.72" y2="13.12"/>
    <line class="cls-1" x1="999.47" y1="36.73" x2="999.47" y2="18.37"/>
    <line class="cls-1" x1="1008.21" y1="41.11" x2="1008.21" y2="13.12"/>
    <line class="cls-1" x1="1016.96" y1="48.98" x2="1016.96" y2="3.5"/>
    <line class="cls-1" x1="1025.71" y1="47.23" x2="1025.71" y2="5.25"/>
    <line class="cls-1" x1="1034.45" y1="47.23" x2="1034.45" y2="5.25"/>
    <line class="cls-1" x1="1043.2" y1="44.61" x2="1043.2" y2="7"/>
    <line class="cls-1" x1="1051.95" y1="42.86" x2="1051.95" y2="9.62"/>
    <line class="cls-1" x1="938.24" y1="47.23" x2="938.24" y2="3.5"/>
    <line class="cls-1" x1="929.5" y1="42.86" x2="929.5" y2="11.37"/>
    <line class="cls-1" x1="920.75" y1="44.61" x2="920.75" y2="9.62"/>
    <line class="cls-1" x1="912" y1="39.36" x2="912" y2="16.62"/>
    <line class="cls-1" x1="903.26" y1="41.11" x2="903.26" y2="14.87"/>
    <line class="cls-1" x1="894.51" y1="33.24" x2="894.51" y2="20.12"/>
    <line class="cls-1" x1="885.76" y1="31.49" x2="885.76" y2="21.87"/>
    <line class="cls-1" x1="877.02" y1="29.74" x2="877.02" y2="24.49"/>
    <line class="cls-1" x1="868.27" y1="33.24" x2="868.27" y2="20.12"/>
    <line class="cls-1" x1="859.52" y1="39.36" x2="859.52" y2="13.12"/>
    <line class="cls-1" x1="850.78" y1="34.99" x2="850.78" y2="18.37"/>
    <line class="cls-1" x1="842.03" y1="39.36" x2="842.03" y2="13.12"/>
    <line class="cls-1" x1="833.28" y1="34.99" x2="833.28" y2="18.37"/>
    <line class="cls-1" x1="824.54" y1="36.73" x2="824.54" y2="16.62"/>
    <line class="cls-1" x1="815.79" y1="39.36" x2="815.79" y2="13.12"/>
    <line class="cls-1" x1="807.05" y1="41.11" x2="807.05" y2="11.37"/>
    <line class="cls-1" x1="798.3" y1="39.36" x2="798.3" y2="14.87"/>
    <line class="cls-1" x1="1121.04" y1="42.86" x2="1121.04" y2="9.62"/>
    <line class="cls-1" x1="1112.3" y1="39.36" x2="1112.3" y2="13.12"/>
    <line class="cls-1" x1="1094.8" y1="33.24" x2="1094.8" y2="20.12"/>
    <line class="cls-1" x1="1103.55" y1="34.99" x2="1103.55" y2="18.37"/>
    <line class="cls-1" x1="1129.79" y1="42.86" x2="1129.79" y2="9.62"/>
    <line class="cls-1" x1="1138.53" y1="41.11" x2="1138.53" y2="11.37"/>
    <line class="cls-1" x1="1147.28" y1="39.36" x2="1147.28" y2="13.12"/>
    <line class="cls-1" x1="1156.03" y1="33.24" x2="1156.03" y2="20.12"/>
    <line class="cls-1" x1="1164.77" y1="33.24" x2="1164.77" y2="20.12"/>
    <line class="cls-1" x1="1173.52" y1="31.49" x2="1173.52" y2="21.87"/>
    <line class="cls-1" x1="1182.27" y1="29.74" x2="1182.27" y2="24.49"/>
    <line class="cls-1" x1="1086.06" y1="34.99" x2="1086.06" y2="18.37"/>
    <line class="cls-1" x1="1077.31" y1="34.99" x2="1077.31" y2="18.37"/>
    <line class="cls-1" x1="1068.56" y1="36.73" x2="1068.56" y2="16.62"/>
    <line class="cls-1" x1="1059.82" y1="39.36" x2="1059.82" y2="11.37"/>
  </g>
</svg>