<?xml version="1.0" encoding="UTF-8"?>
<svg id="Ebene_2" data-name="Ebene 2" xmlns="http://www.w3.org/2000/svg" viewBox="0 0 1315.78 40.6">
  <defs>
    <style>
      .cls-1 {
        fill: none;
        stroke: #0147b1;
        stroke-width: 3px;
      }
    </style>
  </defs>
  <g id="Ebene_1-2" data-name="Ebene 1">
    <line class="cls-1" x1="1.5" y1="26.15" x2="1.5" y2="15.83"/>
    <line class="cls-1" x1="11.22" y1="33.72" x2="11.22" y2="8.26"/>
    <line class="cls-1" x1="20.95" y1="29.59" x2="20.95" y2="11.7"/>
    <line class="cls-1" x1="30.67" y1="26.15" x2="30.67" y2="15.83"/>
    <line class="cls-1" x1="40.4" y1="31.66" x2="40.4" y2="11.7"/>
    <line class="cls-1" x1="50.12" y1="37.85" x2="50.12" y2="2.06"/>
    <line class="cls-1" x1="59.85" y1="33.72" x2="59.85" y2="8.26"/>
    <line class="cls-1" x1="69.57" y1="29.59" x2="69.57" y2="11.7"/>
    <line class="cls-1" x1="79.29" y1="24.78" x2="79.29" y2="17.21"/>
    <line class="cls-1" x1="89.02" y1="26.15" x2="89.02" y2="15.83"/>
    <line class="cls-1" x1="98.74" y1="25.46" x2="98.74" y2="17.21"/>
    <line class="cls-1" x1="108.47" y1="29.59" x2="108.47" y2="12.39"/>
    <line class="cls-1" x1="118.19" y1="30.97" x2="118.19" y2="8.95"/>
    <line class="cls-1" x1="127.92" y1="40.6" x2="127.92"/>
    <line class="cls-1" x1="137.64" y1="40.6" x2="137.64"/>
    <line class="cls-1" x1="147.36" y1="40.6" x2="147.36"/>
    <line class="cls-1" x1="157.09" y1="37.85" x2="157.09" y2="2.06"/>
    <line class="cls-1" x1="166.81" y1="31.66" x2="166.81" y2="8.26"/>
    <line class="cls-1" x1="176.54" y1="28.22" x2="176.54" y2="13.08"/>
    <line class="cls-1" x1="186.26" y1="26.15" x2="186.26" y2="15.83"/>
    <line class="cls-1" x1="195.99" y1="26.15" x2="195.99" y2="15.83"/>
    <line class="cls-1" x1="205.71" y1="23.4" x2="205.71" y2="17.89"/>
    <line class="cls-1" x1="215.43" y1="22.71" x2="215.43" y2="19.27"/>
    <line class="cls-1" x1="225.16" y1="22.02" x2="225.16" y2="19.96"/>
    <line class="cls-1" x1="234.88" y1="22.71" x2="234.88" y2="19.27"/>
    <line class="cls-1" x1="244.61" y1="22.71" x2="244.61" y2="19.96"/>
    <line class="cls-1" x1="254.33" y1="23.4" x2="254.33" y2="18.58"/>
    <line class="cls-1" x1="264.06" y1="26.84" x2="264.06" y2="14.45"/>
    <line class="cls-1" x1="273.78" y1="33.03" x2="273.78" y2="8.95"/>
    <line class="cls-1" x1="283.5" y1="24.09" x2="283.5" y2="17.89"/>
    <line class="cls-1" x1="293.23" y1="29.59" x2="293.23" y2="11.7"/>
    <line class="cls-1" x1="302.95" y1="34.41" x2="302.95" y2="6.88"/>
    <line class="cls-1" x1="312.68" y1="31.66" x2="312.68" y2="11.01"/>
    <line class="cls-1" x1="322.4" y1="26.15" x2="322.4" y2="15.83"/>
    <line class="cls-1" x1="332.13" y1="35.1" x2="332.13" y2="6.88"/>
    <line class="cls-1" x1="341.85" y1="30.97" x2="341.85" y2="12.39"/>
    <line class="cls-1" x1="351.57" y1="26.15" x2="351.57" y2="15.83"/>
    <line class="cls-1" x1="361.3" y1="26.15" x2="361.3" y2="15.83"/>
    <line class="cls-1" x1="371.02" y1="24.09" x2="371.02" y2="17.89"/>
    <line class="cls-1" x1="380.75" y1="28.22" x2="380.75" y2="14.45"/>
    <line class="cls-1" x1="390.47" y1="35.79" x2="390.47" y2="6.19"/>
    <line class="cls-1" x1="400.2" y1="31.66" x2="400.2" y2="11.01"/>
    <line class="cls-1" x1="409.92" y1="26.15" x2="409.92" y2="15.83"/>
    <line class="cls-1" x1="419.64" y1="24.09" x2="419.64" y2="17.89"/>
    <line class="cls-1" x1="429.37" y1="28.22" x2="429.37" y2="12.39"/>
    <line class="cls-1" x1="439.09" y1="26.15" x2="439.09" y2="14.45"/>
    <line class="cls-1" x1="448.82" y1="30.28" x2="448.82" y2="11.7"/>
    <line class="cls-1" x1="458.54" y1="37.16" x2="458.54" y2="4.82"/>
    <line class="cls-1" x1="468.27" y1="34.41" x2="468.27" y2="7.57"/>
    <line class="cls-1" x1="477.99" y1="36.47" x2="477.99" y2="5.51"/>
    <line class="cls-1" x1="487.71" y1="33.72" x2="487.71" y2="9.63"/>
    <line class="cls-1" x1="497.44" y1="40.6" x2="497.44"/>
    <line class="cls-1" x1="507.16" y1="26.15" x2="507.16" y2="15.83"/>
    <line class="cls-1" x1="516.89" y1="35.79" x2="516.89" y2="6.19"/>
    <line class="cls-1" x1="526.61" y1="33.03" x2="526.61" y2="11.01"/>
    <line class="cls-1" x1="536.34" y1="26.15" x2="536.34" y2="15.83"/>
    <line class="cls-1" x1="546.06" y1="28.9" x2="546.06" y2="13.76"/>
    <line class="cls-1" x1="555.78" y1="30.28" x2="555.78" y2="11.7"/>
    <line class="cls-1" x1="565.51" y1="33.72" x2="565.51" y2="8.95"/>
    <line class="cls-1" x1="575.23" y1="26.15" x2="575.23" y2="15.83"/>
    <line class="cls-1" x1="877.66" y1="28.9" x2="877.66" y2="13.08"/>
    <line class="cls-1" x1="584.96" y1="30.28" x2="584.96" y2="11.01"/>
    <line class="cls-1" x1="594.68" y1="23.4" x2="594.68" y2="17.89"/>
    <line class="cls-1" x1="604.41" y1="23.4" x2="604.41" y2="17.89"/>
    <line class="cls-1" x1="614.13" y1="22.71" x2="614.13" y2="19.27"/>
    <line class="cls-1" x1="623.85" y1="22.71" x2="623.85" y2="19.27"/>
    <line class="cls-1" x1="633.58" y1="26.15" x2="633.58" y2="15.83"/>
    <line class="cls-1" x1="643.3" y1="29.59" x2="643.3" y2="13.08"/>
    <line class="cls-1" x1="653.03" y1="26.15" x2="653.03" y2="15.83"/>
    <line class="cls-1" x1="662.75" y1="24.78" x2="662.75" y2="17.21"/>
    <line class="cls-1" x1="672.48" y1="28.22" x2="672.48" y2="13.76"/>
    <line class="cls-1" x1="682.2" y1="26.15" x2="682.2" y2="15.83"/>
    <line class="cls-1" x1="691.92" y1="24.78" x2="691.92" y2="17.21"/>
    <line class="cls-1" x1="701.65" y1="26.15" x2="701.65" y2="15.83"/>
    <line class="cls-1" x1="711.37" y1="26.15" x2="711.37" y2="15.83"/>
    <line class="cls-1" x1="721.1" y1="28.9" x2="721.1" y2="15.14"/>
    <line class="cls-1" x1="730.82" y1="32.35" x2="730.82" y2="11.7"/>
    <line class="cls-1" x1="740.55" y1="30.28" x2="740.55" y2="13.08"/>
    <line class="cls-1" x1="750.27" y1="30.28" x2="750.27" y2="13.08"/>
    <line class="cls-1" x1="759.99" y1="26.15" x2="759.99" y2="15.83"/>
    <line class="cls-1" x1="769.72" y1="24.09" x2="769.72" y2="18.58"/>
    <line class="cls-1" x1="779.44" y1="24.09" x2="779.44" y2="17.89"/>
    <line class="cls-1" x1="789.17" y1="24.09" x2="789.17" y2="17.21"/>
    <line class="cls-1" x1="798.89" y1="22.71" x2="798.89" y2="19.27"/>
    <line class="cls-1" x1="808.62" y1="22.71" x2="808.62" y2="19.27"/>
    <line class="cls-1" x1="818.34" y1="23.4" x2="818.34" y2="18.58"/>
    <line class="cls-1" x1="828.06" y1="23.4" x2="828.06" y2="18.58"/>
    <line class="cls-1" x1="837.79" y1="23.4" x2="837.79" y2="17.89"/>
    <line class="cls-1" x1="847.51" y1="23.4" x2="847.51" y2="18.58"/>
    <line class="cls-1" x1="857.24" y1="22.71" x2="857.24" y2="19.27"/>
    <line class="cls-1" x1="866.96" y1="24.09" x2="866.96" y2="17.21"/>
    <line class="cls-1" x1="1081.87" y1="35.1" x2="1081.87" y2="8.95"/>
    <line class="cls-1" x1="1072.14" y1="32.35" x2="1072.14" y2="11.7"/>
    <line class="cls-1" x1="1052.7" y1="35.1" x2="1052.7" y2="5.51"/>
    <line class="cls-1" x1="1062.42" y1="27.53" x2="1062.42" y2="15.83"/>
    <line class="cls-1" x1="1091.59" y1="35.1" x2="1091.59" y2="8.95"/>
    <line class="cls-1" x1="1101.32" y1="32.35" x2="1101.32" y2="10.32"/>
    <line class="cls-1" x1="1111.04" y1="28.9" x2="1111.04" y2="14.45"/>
    <line class="cls-1" x1="1120.77" y1="32.35" x2="1120.77" y2="10.32"/>
    <line class="cls-1" x1="1130.49" y1="38.54" x2="1130.49" y2="2.75"/>
    <line class="cls-1" x1="1140.21" y1="37.16" x2="1140.21" y2="4.13"/>
    <line class="cls-1" x1="1149.94" y1="37.16" x2="1149.94" y2="4.13"/>
    <line class="cls-1" x1="1159.66" y1="35.1" x2="1159.66" y2="5.51"/>
    <line class="cls-1" x1="1169.39" y1="33.72" x2="1169.39" y2="7.57"/>
    <line class="cls-1" x1="1042.97" y1="37.16" x2="1042.97" y2="2.75"/>
    <line class="cls-1" x1="1033.25" y1="33.72" x2="1033.25" y2="8.95"/>
    <line class="cls-1" x1="1023.52" y1="35.1" x2="1023.52" y2="7.57"/>
    <line class="cls-1" x1="1013.8" y1="30.97" x2="1013.8" y2="13.08"/>
    <line class="cls-1" x1="1004.07" y1="32.35" x2="1004.07" y2="11.7"/>
    <line class="cls-1" x1="994.35" y1="26.15" x2="994.35" y2="15.83"/>
    <line class="cls-1" x1="984.63" y1="24.78" x2="984.63" y2="17.21"/>
    <line class="cls-1" x1="974.9" y1="23.4" x2="974.9" y2="19.27"/>
    <line class="cls-1" x1="965.18" y1="26.15" x2="965.18" y2="15.83"/>
    <line class="cls-1" x1="955.45" y1="30.97" x2="955.45" y2="10.32"/>
    <line class="cls-1" x1="945.73" y1="27.53" x2="945.73" y2="14.45"/>
    <line class="cls-1" x1="936" y1="30.97" x2="936" y2="10.32"/>
    <line class="cls-1" x1="926.28" y1="27.53" x2="926.28" y2="14.45"/>
    <line class="cls-1" x1="916.56" y1="28.9" x2="916.56" y2="13.08"/>
    <line class="cls-1" x1="906.83" y1="30.97" x2="906.83" y2="10.32"/>
    <line class="cls-1" x1="897.11" y1="32.35" x2="897.11" y2="8.95"/>
    <line class="cls-1" x1="887.38" y1="30.97" x2="887.38" y2="11.7"/>
    <line class="cls-1" x1="1246.21" y1="33.72" x2="1246.21" y2="7.57"/>
    <line class="cls-1" x1="1236.48" y1="30.97" x2="1236.48" y2="10.32"/>
    <line class="cls-1" x1="1217.04" y1="26.15" x2="1217.04" y2="15.83"/>
    <line class="cls-1" x1="1226.76" y1="27.53" x2="1226.76" y2="14.45"/>
    <line class="cls-1" x1="1255.93" y1="33.72" x2="1255.93" y2="7.57"/>
    <line class="cls-1" x1="1265.66" y1="32.35" x2="1265.66" y2="8.95"/>
    <line class="cls-1" x1="1275.38" y1="30.97" x2="1275.38" y2="10.32"/>
    <line class="cls-1" x1="1285.11" y1="26.15" x2="1285.11" y2="15.83"/>
    <line class="cls-1" x1="1294.83" y1="26.15" x2="1294.83" y2="15.83"/>
    <line class="cls-1" x1="1304.55" y1="24.78" x2="1304.55" y2="17.21"/>
    <line class="cls-1" x1="1314.28" y1="23.4" x2="1314.28" y2="19.27"/>
    <line class="cls-1" x1="1207.31" y1="27.53" x2="1207.31" y2="14.45"/>
    <line class="cls-1" x1="1197.59" y1="27.53" x2="1197.59" y2="14.45"/>
    <line class="cls-1" x1="1187.86" y1="28.9" x2="1187.86" y2="13.08"/>
    <line class="cls-1" x1="1178.14" y1="30.97" x2="1178.14" y2="8.95"/>
  </g>
</svg>