<?xml version="1.0" encoding="UTF-8" standalone="no"?>
<!-- Created with Inkscape (http://www.inkscape.org/) -->

<svg
   width="297mm"
   height="210mm"
   viewBox="0 0 297 210"
   version="1.1"
   id="svg5"
   inkscape:version="1.2.2 (732a01da63, 2022-12-09)"
   sodipodi:docname="footswitch.svg"
   xml:space="preserve"
   xmlns:inkscape="http://www.inkscape.org/namespaces/inkscape"
   xmlns:sodipodi="http://sodipodi.sourceforge.net/DTD/sodipodi-0.dtd"
   xmlns="http://www.w3.org/2000/svg"
   xmlns:svg="http://www.w3.org/2000/svg"><sodipodi:namedview
     id="namedview7"
     pagecolor="#ffffff"
     bordercolor="#000000"
     borderopacity="0.25"
     inkscape:showpageshadow="2"
     inkscape:pageopacity="0.0"
     inkscape:pagecheckerboard="0"
     inkscape:deskcolor="#d1d1d1"
     inkscape:document-units="mm"
     showgrid="true"
     inkscape:zoom="1.4912879"
     inkscape:cx="657.48538"
     inkscape:cy="374.17322"
     inkscape:window-width="1920"
     inkscape:window-height="1017"
     inkscape:window-x="-8"
     inkscape:window-y="-8"
     inkscape:window-maximized="1"
     inkscape:current-layer="layer2"><inkscape:grid
       type="xygrid"
       id="grid1039" /></sodipodi:namedview><defs
     id="defs2"><inkscape:path-effect
       effect="skeletal"
       id="path-effect1115"
       is_visible="true"
       lpeversion="1"
       pattern="M 0,4.9921385 C 0,2.2364781 2.2364781,0 4.9921385,0 7.747799,0 9.984277,2.2364781 9.984277,4.9921385 9.984277,7.747799 7.747799,9.984277 4.9921385,9.984277 2.2364781,9.984277 0,7.747799 0,4.9921385 Z"
       copytype="single_stretched"
       prop_scale="-2.573758"
       scale_y_rel="false"
       spacing="0"
       normal_offset="0"
       tang_offset="0"
       prop_units="false"
       vertical_pattern="false"
       hide_knot="false"
       fuse_tolerance="0" /><inkscape:path-effect
       effect="skeletal"
       id="path-effect1111"
       is_visible="true"
       lpeversion="1"
       pattern="M 0,4.9921385 C 0,2.2364781 2.2364781,0 4.9921385,0 7.747799,0 9.984277,2.2364781 9.984277,4.9921385 9.984277,7.747799 7.747799,9.984277 4.9921385,9.984277 2.2364781,9.984277 0,7.747799 0,4.9921385 Z"
       copytype="single_stretched"
       prop_scale="-0.46773756"
       scale_y_rel="false"
       spacing="0"
       normal_offset="0"
       tang_offset="0"
       prop_units="false"
       vertical_pattern="false"
       hide_knot="false"
       fuse_tolerance="0" /></defs><g
     inkscape:groupmode="layer"
     id="layer2"
     inkscape:label="Ebene 2"
     style="display:inline"><g
       id="g1013"
       inkscape:label="PLAY"
       transform="matrix(-1,0,0,1,301.19463,-0.39788788)"><path
         style="fill:none;stroke:#000000;stroke-width:1.14;stroke-linecap:round;stroke-linejoin:round;stroke-dasharray:none;stroke-opacity:1"
         d="m 86.833711,147.99108 c 2.25057,0.0215 2.37119,-0.16876 2.48418,-1.80018 0.0389,-0.56126 -0.23289,-6.64267 -0.22112,-7.20515 0.0457,-2.18546 10.61306,-70.198965 10.70081,-72.199731 0.0325,-0.740896 -0.72007,-1.527026 -1.44272,-1.693635 -20.857599,-5.414316 -41.223297,-6.729761 -65.185398,-7.76971 -0.56986,0.159875 -1.05984,0.851389 -1.03499,1.442725 0.0355,0.844467 -7.381844,66.387331 -7.647794,68.984771 -0.114499,2.27466 -0.279626,10.00719 -0.213538,15.13211 0.183048,1.37102 0.73506,1.36125 2.049453,1.62078 1.303847,0.25744 60.320837,3.48621 60.511117,3.48802 z"
         id="path1009"
         sodipodi:nodetypes="ssssccsccss"
         inkscape:label="PLAY" /><path
         style="fill:none;stroke:#000000;stroke-width:0.74;stroke-linecap:round;stroke-linejoin:round;stroke-dasharray:none"
         d="m 24.914546,124.45263 c 0,0 0.01701,1.21303 -0.0016,1.40867 -0.07297,0.76699 -0.295703,1.61515 0.516341,2.10108 0.641719,0.38401 2.784319,0.57827 3.306361,0.6177 7.516481,0.56772 25.607912,2.71337 30.792478,3.52343 10.123641,1.58177 29.732698,6.58636 29.732698,6.58636"
         id="path1011"
         sodipodi:nodetypes="cssssc"
         inkscape:label="Hilfslinie" /><text
         xml:space="preserve"
         style="font-size:9.69478px;display:inline;fill:#000000;fill-opacity:1;stroke:#000000;stroke-width:0.426939;stroke-linecap:round;stroke-linejoin:round;stroke-dasharray:none;stroke-opacity:1"
         x="-63.575169"
         y="69.388947"
         id="text487"
         inkscape:label="text PLAY"
         transform="scale(-1,1)"><tspan
           sodipodi:role="line"
           style="fill:#000000;fill-opacity:1;stroke-width:0.426939;stroke-dasharray:none"
           x="-63.575169"
           y="69.388947"
           id="tspan485"
           inkscape:label="&quot;FFW&quot;">PLAY</tspan></text></g><g
       id="g1177"
       inkscape:label="FFWD"><path
         style="display:inline;fill:none;stroke:#000000;stroke-width:1.14;stroke-linecap:round;stroke-linejoin:round;stroke-dasharray:none;stroke-opacity:1"
         d="m 126.74255,89.537718 c 2.25057,0.0215 44.29962,-0.0756 47.2735,-0.19894 0.56212,-0.0233 1.11732,-0.69207 1.12909,-1.25455 0.0457,-2.185457 1.95088,-30.711475 2.03863,-32.712241 0.0325,-0.740896 -0.59462,-1.244754 -1.31727,-1.411363 -9.09098,-2.095941 -20.94396,-3.55946 -24.36953,-3.638178 -0.71103,-0.01634 -1.04523,-0.01169 -1.75635,-3e-6 -3.39762,0.05584 -18.21632,1.720559 -25.49862,3.763632 -0.56986,0.159875 -1.05984,0.851389 -1.03499,1.442725 0.0355,0.844467 2.17978,29.957983 2.16408,32.555428 -0.006,1.03613 0.61032,1.44624 1.37146,1.45349 z"
         id="path1091"
         sodipodi:nodetypes="sssssssssss"
         inkscape:label="FFWD" /><path
         style="display:inline;fill:none;stroke:#000000;stroke-width:0.74;stroke-linecap:round;stroke-linejoin:round;stroke-dasharray:none;stroke-opacity:1"
         d="m 177.3309,55.114228 0.65048,10.733681 -2.66668,22.606398"
         id="path1195"
         sodipodi:nodetypes="ccc"
         inkscape:label="Hilfslinie" /><path
         style="fill:none;stroke:#000000;stroke-width:0.74;stroke-linecap:round;stroke-linejoin:round;stroke-dasharray:none;stroke-opacity:1"
         d="m 150.76708,58.417407 c -6.61359,-0.01904 -12.07466,3.924397 -12.79695,9.02164 0,0 0,0 0,10e-7 -0.0508,0.369027 -0.0766,0.744004 -0.0761,1.123835 0.008,5.617756 5.76981,10.169332 12.86221,10.15977 7.0924,-0.0096 12.8424,-4.554749 12.83484,-10.145505 -5.1e-4,-0.378006 -0.0273,-0.751211 -0.0791,-1.118554 0,0 0,0 0,0 -0.69158,-5.057369 -6.13284,-9.022152 -12.74495,-9.041187 z"
         id="path1113"
         inkscape:path-effect="#path-effect1115"
         inkscape:original-d="m 150.76708,58.417407 -0.026,9.031414 0.0152,11.273831"
         class="UnoptimicedTransforms"
         sodipodi:nodetypes="ccc"
         inkscape:label="Ellipse"
         transform="matrix(0.78171164,0,0,0.78171164,32.152619,18.394099)" /><path
         style="display:inline;fill:none;stroke:#000000;stroke-width:0.74;stroke-linecap:round;stroke-linejoin:round;stroke-dasharray:none;stroke-opacity:1"
         d="m 123.14886,54.926047 -0.65048,10.733681 2.66668,22.606398"
         id="path1198"
         sodipodi:nodetypes="ccc"
         inkscape:label="Hilfslinie" /><text
         xml:space="preserve"
         style="font-size:9.69478px;display:inline;fill:#000000;fill-opacity:1;stroke:#000000;stroke-width:0.426939;stroke-linecap:round;stroke-linejoin:round;stroke-dasharray:none;stroke-opacity:1"
         x="136.60713"
         y="60.585609"
         id="text1413"
         inkscape:label="text FFWD"><tspan
           sodipodi:role="line"
           style="fill:#000000;fill-opacity:1;stroke-width:0.426939;stroke-dasharray:none"
           x="136.60713"
           y="60.585609"
           id="tspan1411"
           inkscape:label="&quot;FFW&quot;">FFWD</tspan></text></g><g
       id="g1107"
       inkscape:label="Mitte"><path
         style="fill:none;stroke:#000000;stroke-width:1.14;stroke-linecap:round;stroke-linejoin:round;stroke-dasharray:none"
         d="m 120.29032,65.911289 c -0.093,-1.002806 -0.14677,-0.895068 -1.15323,-0.931451 -4.37389,-0.158116 -14.19281,-0.142685 -14.81943,-0.112005 -0.79034,0.0387 -2.21368,-0.01105 -2.48879,0.82744 -0.67743,2.064718 -7.210834,49.290527 -9.551129,73.177957 -0.225555,2.30224 -0.154888,7.27872 -0.140215,8.09549 0.01348,0.75038 0.364703,1.11119 0.948901,1.16568 0.476429,0.0444 33.627873,0.19113 34.254543,0.20386 0.32897,0.007 1.40579,-0.10271 1.42628,-0.63235 0.0763,-1.97279 0.19135,-8.16662 0.35484,-9.28722 0.44682,-3.06265 5.43304,-10.98247 21.64,-11.0316 14.72867,-0.0447 20.26877,7.69815 20.73339,10.49372 0.35441,2.13241 0.36375,7.91091 0.48568,9.26441 0.0987,1.09563 0.67506,1.04828 1.37722,1.06175 1.23354,0.0236 31.73344,-0.15384 34.39967,-0.15052 1.2192,0.002 1.3234,-0.37814 1.2863,-1.59678 -0.0575,-1.88944 -0.0586,-7.10713 -0.11088,-8.44959 -0.0809,-2.07811 -8.9315,-69.364821 -9.42003,-71.657093 -0.2737,-1.284273 -0.7959,-1.211241 -2.09582,-1.396907 -1.48816,-0.212552 -13.80323,-0.275073 -15.51175,-0.41849 -0.84993,-0.07134 -1.28875,0.0037 -1.34494,0.85481 -0.13508,2.046336 -3.78973,23.294172 -3.94719,24.435599 -0.14298,1.036474 -0.19414,1.004769 -1.24009,1.031305 -1.58357,0.04018 -49.95627,0.443718 -51.08209,0.376363 -1.08154,-0.06471 -0.8883,-0.0341 -1.07474,-1.116481 -0.21592,-1.253575 -2.76737,-22.492393 -2.9265,-24.207897 z"
         id="path1029"
         inkscape:label="mitte"
         sodipodi:nodetypes="ssssssssssssssssssssssssss" /><path
         style="fill:none;stroke:#000000;stroke-width:0.74;stroke-linecap:round;stroke-linejoin:round;stroke-dasharray:none"
         d="m 92.258061,138.56451 36.882629,0.33424"
         id="path1031"
         inkscape:label="Hilfslinie"
         sodipodi:nodetypes="cc" /><path
         style="fill:none;stroke:#000000;stroke-width:0.74;stroke-linecap:round;stroke-linejoin:round;stroke-dasharray:none"
         d="m 209.25583,138.48611 -36.88263,0.33424"
         id="path1031-9"
         inkscape:label="Hilfslinie"
         sodipodi:nodetypes="cc" /></g><g
       id="g1001"
       inkscape:label="REW"
       transform="translate(-0.17741935)"><path
         style="fill:none;stroke:#000000;stroke-width:1.14;stroke-linecap:round;stroke-linejoin:round;stroke-dasharray:none;stroke-opacity:1"
         d="m 86.833711,147.99108 c 2.25057,0.0215 2.37119,-0.16876 2.48418,-1.80018 0.0389,-0.56126 -0.23289,-6.64267 -0.22112,-7.20515 0.0457,-2.18546 10.61306,-70.198965 10.70081,-72.199731 0.0325,-0.740896 -0.72007,-1.527026 -1.44272,-1.693635 -20.857599,-5.414316 -41.223297,-6.729761 -65.185398,-7.76971 -0.56986,0.159875 -1.05984,0.851389 -1.03499,1.442725 0.0355,0.844467 -7.381844,66.387331 -7.647794,68.984771 -0.114499,2.27466 -0.279626,10.00719 -0.213538,15.13211 0.02623,1.81011 1.017332,1.67489 2.049453,1.62078 1.327196,-0.0696 60.320837,3.48621 60.511117,3.48802 z"
         id="path1135"
         sodipodi:nodetypes="ssssccsccss"
         inkscape:label="REW" /><path
         style="fill:none;stroke:#000000;stroke-width:0.74;stroke-linecap:round;stroke-linejoin:round;stroke-dasharray:none"
         d="m 24.914546,124.45263 c 0,0 0.01701,1.21303 -0.0016,1.40867 -0.07297,0.76699 -0.295703,1.61515 0.516341,2.10108 0.641719,0.38401 2.784319,0.57827 3.306361,0.6177 7.516481,0.56772 25.607912,2.71337 30.792478,3.52343 10.123641,1.58177 29.732698,6.58636 29.732698,6.58636"
         id="path388"
         sodipodi:nodetypes="cssssc"
         inkscape:label="Hilfslinie" /><text
         xml:space="preserve"
         style="font-size:9.69478px;display:inline;fill:#000000;fill-opacity:1;stroke:#000000;stroke-width:0.426939;stroke-linecap:round;stroke-linejoin:round;stroke-dasharray:none;stroke-opacity:1"
         x="38.609867"
         y="69.889687"
         id="text1413-6"
         inkscape:label="text REW"><tspan
           sodipodi:role="line"
           style="fill:#000000;fill-opacity:1;stroke-width:0.426939;stroke-dasharray:none"
           x="38.609867"
           y="69.889687"
           id="tspan1411-9"
           inkscape:label="&quot;FFW&quot;">REW</tspan></text></g><g
       id="g1209"
       inkscape:label="Boden"
       style="display:inline"
       transform="translate(0,0.53225806)"><path
         style="display:inline;fill:none;stroke:#000000;stroke-width:1.14;stroke-linecap:round;stroke-linejoin:round;stroke-dasharray:none;stroke-opacity:1"
         d="m 25.044825,146.11793 c 0.638459,0.0529 70.559053,3.7473 104.448085,4.06756 1.32803,-0.0197 1.23935,-0.09 1.24194,-1.41936 0.004,-1.83312 0.23692,-6.77116 0.28262,-9.83509 0.0277,-1.85412 3.47726,-10.42539 19.21234,-10.25764 16.57044,0.17666 19.16049,8.89979 19.28806,10.24595 0.32388,3.41775 0.33483,8.61419 0.35483,9.80243 0.0208,1.23573 0.22782,1.34608 1.19758,1.33065 45.09474,-0.71768 103.73248,-4.38136 104.46694,-4.44533 1.17259,-0.10213 1.15758,-0.24332 1.16529,0.76925 0.0283,3.72251 -0.11311,6.0459 -0.47899,8.23385 -0.18437,1.10251 -1.30872,1.93094 -2.42652,1.93326 -3.5376,0.007 -241.733511,0.37438 -246.801619,0.0748 -1.807142,-0.10683 -2.566189,-1.24939 -2.658521,-3.05733 -0.128528,-2.51669 -0.107458,-5.63479 -0.04784,-6.5506 0.06288,-0.96593 0.08943,-0.94761 0.755802,-0.89238 z"
         id="path1200"
         inkscape:label="path1204"
         sodipodi:nodetypes="scsssssssssssssss" /></g></g></svg>
