<?xml version="1.0" encoding="UTF-8"?>
<svg id="Ebene_2" data-name="Ebene 2" xmlns="http://www.w3.org/2000/svg" viewBox="0 0 16.41 21">
  <defs>
    <style>
      .cls-1 {
        fill: #0147b1;
        stroke: #0147b1;
        stroke-width: 2px;
      }
    </style>
  </defs>
  <g id="Ebene_1-2" data-name="Ebene 1">
    <path class="cls-1" d="m3.29,1h0c1.27,0,2.29,1.03,2.29,2.29v14.41c0,1.27-1.03,2.29-2.29,2.29h0c-1.27,0-2.29-1.03-2.29-2.29V3.29c0-1.27,1.03-2.29,2.29-2.29Zm9.83,0h0c1.27,0,2.29,1.03,2.29,2.29v14.41c0,1.27-1.03,2.29-2.29,2.29h0c-1.27,0-2.29-1.03-2.29-2.29V3.29c0-1.27,1.03-2.29,2.29-2.29Z"/>
  </g>
</svg>