<?xml version="1.0" encoding="UTF-8"?>
<svg id="Ebene_2" data-name="Ebene 2" xmlns="http://www.w3.org/2000/svg" viewBox="0 0 82.79 77.54">
  <defs>
    <style>
      .cls-1 {
        fill: #0147b1;
        stroke: #0147b1;
        stroke-miterlimit: 10;
        stroke-width: 6px;
      }
    </style>
  </defs>
  <g id="Ebene_1-2" data-name="Ebene 1">
    <path class="cls-1" d="m36.92,74.53c8.28.07,14.35-2.61,18.2-4.95,3.82-2.32,5.83-3.31,6.84-5.5,2.58-5.57-1.31-14.17-5.9-15.1-3.82-.78-5.2,4.35-12.17,6.07-.77.19-8.39,1.95-14.63-2.65-5.65-4.15-8.32-12.08-6.23-19.24,2.37-8.13,10.09-12.56,16.36-12.93,5.24-.3,10.52,2.17,10.44,3.66-.05,1.04-2.7,2-6.55,3.4-2.47.9-5.36,1.77-5.55,3.32,0,.04,0,.06,0,.1,0,0,0,.04.01.09.48,2.13,13.91,5.13,13.91,5.13,11.11,2.48,11.85,3.87,14.46,2.73,1.75-.77,2.49-1.87,7.24-10.57,6-10.99,7.05-13.32,6.15-14.22-.83-.83-3.23-.02-7.98,1.71-2.08.76-3.8,1.5-5.08,2.08-1.99-2.79-5.54-6.96-11.15-10.11C44.41,1.46,28.54.77,16.56,9.88,2.28,20.74,2.87,38.4,3.06,41.67c.2,3.46.94,13.57,8.91,22.17,9.45,10.2,22.05,10.67,24.95,10.69Z"/>
  </g>
</svg>