<?xml version="1.0" encoding="UTF-8" standalone="no"?>
<!-- Created with Inkscape (http://www.inkscape.org/) -->

<svg
   width="3mm"
   height="3mm"
   viewBox="0 0 22 22"
   version="1.1"
   id="svg5"
   xml:space="preserve"
   inkscape:export-filename="einstellungen.svg"
   inkscape:export-xdpi="96"
   inkscape:export-ydpi="96"
   xmlns:inkscape="http://www.inkscape.org/namespaces/inkscape"
   xmlns:sodipodi="http://sodipodi.sourceforge.net/DTD/sodipodi-0.dtd"
   xmlns="http://www.w3.org/2000/svg"
   xmlns:svg="http://www.w3.org/2000/svg"><sodipodi:namedview
     id="namedview7"
     pagecolor="#ffffff"
     bordercolor="#000000"
     borderopacity="0.25"
     inkscape:showpageshadow="2"
     inkscape:pageopacity="0.0"
     inkscape:pagecheckerboard="0"
     inkscape:deskcolor="#d1d1d1"
     inkscape:document-units="mm"
     showgrid="false" /><defs
     id="defs2" /><g
     inkscape:label="Ebene 1"
     inkscape:groupmode="layer"
     id="layer1"
     style="display:inline"
     transform="translate(-54.721299,-76.509092)"><path
       style="display:inline;fill:#0147b1;fill-opacity:1;stroke-width:0.264583"
       d="m 90.541557,169.39371 c -1.563457,-0.68007 -1.680839,-1.13488 -1.403212,-5.43695 0.136091,-2.10886 0.249986,-4.6294 0.2531,-5.60121 0.0057,-1.76693 0.0057,-1.76693 -1.459471,-2.3151 -0.805823,-0.3015 -1.596408,-0.54818 -1.756854,-0.54818 -0.160446,0 -1.435902,1.10366 -2.834346,2.45258 -5.479757,5.28571 -6.031297,5.74997 -6.819205,5.74013 -0.412776,-0.005 -1.011335,-0.1544 -1.330126,-0.33164 -1.058614,-0.58858 -14.902414,-14.5314 -15.062837,-15.17058 -0.268524,-1.06988 0.120578,-1.88877 1.393044,-2.93176 2.753347,-2.2568 7.767123,-6.76126 7.767123,-6.97811 0,-0.12782 -0.198262,-0.72792 -0.440581,-1.33353 -0.440582,-1.10113 -0.440582,-1.10113 -6.333799,-0.91342 -4.109277,0.13088 -6.057478,0.0998 -6.435847,-0.1027 -1.274103,-0.68188 -1.320076,-1.09809 -1.353909,-12.25762 -0.02154,-7.10366 0.06086,-10.63267 0.256801,-10.99879 0.686894,-1.28347 1.091372,-1.35998 7.19006,-1.35998 6.274501,0 6.020161,0.0655 6.588522,-1.6972 0.374216,-1.16059 0.604594,-0.88868 -5.821247,-6.87084 -2.436188,-2.26797 -2.513541,-2.37565 -2.513541,-3.49875 0,-1.158764 0,-1.158764 7.275305,-8.437677 7.900695,-7.904614 8.32556,-8.220436 9.908692,-7.365551 0.494644,0.267106 2.585101,2.295543 4.645459,4.507638 3.746106,4.021992 3.746106,4.021992 5.245825,3.359293 0.824847,-0.364485 1.597956,-0.760525 1.718024,-0.880089 0.120068,-0.119564 0.08494,-2.940933 -0.07806,-6.269708 -0.399145,-8.151221 -1.194763,-7.485995 9.058202,-7.573674 14.863631,-0.127109 13.614901,-0.198015 14.528221,0.824954 0.79559,0.891099 0.79559,0.891099 0.63915,3.902604 -0.51998,10.009558 -0.66661,8.87638 1.25672,9.712057 1.72022,0.747428 1.72022,0.747428 4.71358,-2.38125 5.55822,-5.809491 5.6952,-5.913106 7.30086,-5.522651 0.47469,0.115431 3.2798,2.725412 8.06979,7.50843 7.16611,7.155668 7.34209,7.356751 7.33814,8.384561 -0.005,1.280593 0.0413,1.212783 -2.24491,3.293803 -1.01864,0.92722 -2.88403,2.67419 -4.14529,3.88213 -2.29322,2.19627 -2.29322,2.19627 -1.88017,3.4879 0.41305,1.29164 0.41305,1.29164 3.74842,1.46176 1.83446,0.0936 4.50406,0.1706 5.93246,0.17119 4.65866,0.002 4.49489,-0.47789 4.27754,12.53212 -0.10123,6.05923 -0.28102,10.38651 -0.45002,10.83091 -0.52065,1.36915 -1.08408,1.46393 -7.3505,1.23651 -3.12863,-0.11354 -5.76011,-0.16213 -5.84774,-0.10797 -0.0876,0.0542 -0.36976,0.64948 -0.62695,1.32293 -0.39468,1.03344 -0.41112,1.27662 -0.1054,1.5588 0.19923,0.18389 1.91005,1.65214 3.80182,3.26277 5.34026,4.54664 5.15938,4.35044 5.15938,5.59608 0,1.07224 -0.0979,1.18354 -7.29465,8.2909 -4.01206,3.96223 -7.64639,7.35443 -8.07629,7.53821 -0.43587,0.18632 -1.09342,0.25588 -1.48643,0.15725 -0.39746,-0.0998 -2.5496,-1.93792 -4.93553,-4.21549 -4.23075,-4.0386 -4.23075,-4.0386 -5.83716,-3.4395 -1.54834,0.57745 -1.60947,0.63574 -1.69129,1.61263 -0.0467,0.55744 0.0394,3.02882 0.19133,5.49195 0.44354,7.19143 1.12088,6.80953 -12.05268,6.79553 -7.692547,-0.008 -9.926813,-0.0874 -10.589523,-0.3757 z m 17.001813,-6.69154 c -0.0781,-0.98227 -0.20626,-3.15516 -0.28477,-4.82865 -0.13286,-2.83195 -0.10064,-3.11602 0.46509,-4.10104 0.57655,-1.00386 0.80488,-1.13234 4.43594,-2.49607 3.99855,-1.50175 5.38616,-1.72107 6.65552,-1.05196 0.38922,0.20516 2.20467,1.78179 4.03433,3.50361 1.82967,1.72182 3.43062,3.09104 3.55768,3.04271 0.42954,-0.16338 9.04106,-8.51403 8.9678,-8.69614 -0.0399,-0.0993 -1.73952,-1.63601 -3.77681,-3.41483 -2.03729,-1.77881 -3.86078,-3.52963 -4.0522,-3.89069 -0.45319,-0.85482 -0.30869,-1.44154 1.43788,-5.83859 1.80515,-4.54452 2.4107,-5.22839 4.43385,-5.00725 0.74551,0.0815 3.08188,0.18261 5.19193,0.22472 3.83646,0.0766 3.83646,0.0766 3.90715,-6.60416 0.0707,-6.68073 0.0707,-6.68073 -4.66329,-6.68073 -2.60368,0 -5.10435,-0.0741 -5.55703,-0.16461 -1.40569,-0.28114 -1.9432,-1.14369 -3.40748,-5.46803 -1.16506,-3.44068 -1.34396,-4.21511 -1.12111,-4.85306 0.15349,-0.4394 1.82095,-2.19489 3.95939,-4.16842 2.16726,-2.00012 3.61956,-3.531202 3.51358,-3.704168 -0.29661,-0.484095 -8.8551,-8.7615 -9.05903,-8.7615 -0.10337,0 -1.7077,1.607344 -3.56517,3.571875 -3.59027,3.797209 -4.1001,4.209179 -5.22734,4.223958 -1.0831,0.0142 -8.69915,-3.351284 -9.44411,-4.173292 -0.63423,-0.699825 -0.63423,-0.699825 -0.48424,-6.196079 0.14999,-5.496253 0.14999,-5.496253 -6.16318,-5.496253 -3.47224,0 -6.367065,0.0893 -6.432946,0.198437 -0.06588,0.109141 -0.02735,2.520156 0.08562,5.357813 0.259752,6.524299 0.367725,6.27524 -3.448799,7.95522 -1.521288,0.66965 -3.549862,1.530791 -4.507942,1.913645 -2.628641,1.050423 -2.905207,0.913181 -7.113202,-3.529797 -1.934715,-2.042754 -3.604897,-3.679639 -3.711519,-3.637521 -0.467463,0.184659 -8.99686,8.562646 -8.99686,8.837151 0,0.167921 1.339453,1.539711 2.976562,3.048411 4.59694,4.23638 4.696355,4.34443 4.696355,5.10419 0,0.38182 -0.594966,2.44756 -1.32215,4.59052 -1.865058,5.49623 -1.461336,5.22459 -8.065899,5.42713 -2.882904,0.0884 -5.315681,0.25639 -5.40617,0.37329 -0.09049,0.11691 -0.123115,3.09982 -0.0725,6.6287 0.09203,6.41614 0.09203,6.41614 2.650727,6.39311 1.407285,-0.0127 3.570732,-0.10197 4.807659,-0.19844 1.236927,-0.0965 2.511669,-0.13803 2.832759,-0.0924 0.978834,0.13923 1.676461,1.14296 2.895981,4.16668 1.541992,3.82328 2.006095,5.46563 1.788967,6.33073 -0.117597,0.46854 -1.468512,1.84056 -3.980154,4.04234 -2.091176,1.83319 -3.802136,3.46983 -3.802136,3.63698 0,0.16715 0.684609,0.94421 1.521354,1.72679 0.836745,0.78258 2.840104,2.71046 4.451911,4.28417 2.930554,2.8613 2.930554,2.8613 6.263894,-0.32498 3.352051,-3.20417 4.514723,-3.96971 6.02904,-3.96971 0.827902,0 6.972265,2.07301 8.184909,2.76146 1.385221,0.78643 1.62913,1.76065 1.46149,5.8375 -0.08377,2.03729 -0.214424,4.21018 -0.290333,4.82864 -0.138023,1.12448 -0.138023,1.12448 6.376512,1.12448 6.51452,0 6.51452,0 6.37249,-1.78593 z M 97.24643,141.56753 c -10.446867,-2.24109 -16.908961,-12.33121 -14.454548,-22.5698 1.675464,-6.9892 7.060811,-12.36031 14.080435,-14.0432 11.489643,-2.75454 22.589843,5.43102 23.152313,17.0731 0.16956,3.50945 -0.3748,6.11358 -1.96233,9.38756 -1.03103,2.12629 -1.57007,2.86002 -3.49877,4.7625 -2.517,2.48277 -4.35919,3.68739 -7.08623,4.63373 -3.48482,1.20932 -6.93101,1.46401 -10.23087,0.75611 z m 7.51464,-5.28674 c 5.34496,-1.58465 9.16758,-5.91158 10.03841,-11.36274 0.52907,-3.31186 -0.42345,-7.03625 -2.53211,-9.90067 -4.42194,-6.00677 -13.228438,-7.23737 -19.249821,-2.68992 -5.383297,4.06556 -7.078279,10.91091 -4.169455,16.83877 2.343952,4.77671 6.739139,7.5186 12.076516,7.53379 1.45407,0.004 2.96555,-0.16103 3.83646,-0.41923 z"
       id="path2949" /></g></svg>
