<?xml version="1.0" encoding="UTF-8"?>
<svg id="Ebene_2" data-name="Ebene 2" xmlns="http://www.w3.org/2000/svg" viewBox="0 0 37.49 37.56">
  <defs>
    <style>
      .cls-1 {
        fill: #0147b1;
        stroke: #0147b1;
        stroke-miterlimit: 10;
        stroke-width: .75px;
      }
    </style>
  </defs>
  <g id="Ebene_1-2" data-name="Ebene 1">
    <g id="layer1">
      <path id="path2949" class="cls-1" d="m14.51,37.03c-.62-.27-.66-.45-.55-2.15.05-.83.1-1.83.1-2.21q0-.7-.58-.91c-.32-.12-.63-.22-.69-.22s-.57.44-1.12.97c-2.16,2.09-2.38,2.27-2.69,2.27-.16,0-.4-.06-.52-.13-.42-.23-5.88-5.74-5.94-5.99-.11-.42.05-.75.55-1.16,1.09-.89,3.07-2.67,3.07-2.75,0-.05-.08-.29-.17-.53q-.17-.43-2.5-.36c-1.62.05-2.39.04-2.54-.04-.5-.27-.52-.43-.53-4.84,0-2.8.02-4.2.1-4.34.27-.51.43-.54,2.84-.54s2.38.03,2.6-.67c.15-.46.24-.35-2.3-2.71-.96-.9-.99-.94-.99-1.38s0-.46,2.87-3.33c3.12-3.12,3.29-3.24,3.91-2.91.2.11,1.02.91,1.83,1.78q1.48,1.59,2.07,1.33c.33-.14.63-.3.68-.35s.03-1.16-.03-2.47c-.16-3.22-.47-2.95,3.57-2.99,5.87-.05,5.37-.08,5.73.33q.31.35.25,1.54c-.21,3.95-.26,3.5.5,3.83q.68.29,1.86-.94c2.19-2.29,2.25-2.33,2.88-2.18.19.05,1.29,1.08,3.18,2.96,2.83,2.82,2.9,2.9,2.9,3.31,0,.51.02.48-.89,1.3-.4.37-1.14,1.06-1.64,1.53q-.91.87-.74,1.38t1.48.58c.72.04,1.78.07,2.34.07,1.84,0,1.77-.19,1.69,4.95-.04,2.39-.11,4.1-.18,4.27-.21.54-.43.58-2.9.49-1.23-.04-2.27-.06-2.31-.04-.03.02-.15.26-.25.52-.16.41-.16.5-.04.62.08.07.75.65,1.5,1.29,2.11,1.79,2.04,1.72,2.04,2.21,0,.42-.04.47-2.88,3.27-1.58,1.56-3.02,2.9-3.19,2.98-.17.07-.43.1-.59.06-.16-.04-1.01-.76-1.95-1.66q-1.67-1.59-2.3-1.36c-.61.23-.64.25-.67.64-.02.22.02,1.2.08,2.17.18,2.84.44,2.69-4.76,2.68-3.04,0-3.92-.03-4.18-.15Zm5.61-13.07c2.11-.63,3.62-2.33,3.96-4.48.21-1.31-.17-2.78-1-3.91-1.75-2.37-5.22-2.86-7.6-1.06-2.12,1.6-2.79,4.31-1.65,6.65.93,1.89,2.66,2.97,4.77,2.97.57,0,1.17-.06,1.51-.17Z"/>
    </g>
  </g>
</svg>