<?xml version="1.0" encoding="UTF-8"?>
<svg id="Ebene_2" data-name="Ebene 2" xmlns="http://www.w3.org/2000/svg" viewBox="0 0 67 50">
  <defs>
    <style>
      .cls-1 {
        fill: none;
        stroke-width: 2px;
      }

      .cls-1, .cls-2 {
        stroke: #0147b1;
      }

      .cls-3 {
        fill: #fff;
      }

      .cls-4, .cls-2 {
        fill: #0147b1;
      }

      .cls-2 {
        stroke-width: 3px;
      }

      .cls-5 {
        fill: rgba(255, 255, 255, .1);
      }
    </style>
  </defs>
  <g id="Ebene_1-2" data-name="Ebene 1">
    <path class="cls-3" d="m1,3c0-1.1.9-2,2-2h61c1.11,0,2,.9,2,2v44c0,1.1-.89,2-2,2H3c-1.1,0-2-.9-2-2V3Z"/>
    <path class="cls-1" d="m49,23.5c0,8.65-6.36,15.5-14,15.5s-14-6.85-14-15.5,6.36-15.5,14-15.5,14,6.85,14,15.5Z"/>
    <rect class="cls-3" x="17" y="7" width="27" height="35"/>
    <path class="cls-1" d="m43,23.5c0,6.39-4.96,11.5-11,11.5s-11-5.11-11-11.5,4.96-11.5,11-11.5,11,5.11,11,11.5Z"/>
    <rect class="cls-3" x="11" y="8" width="27" height="31"/>
    <path class="cls-1" d="m37,23.5c0,5.72-5.07,10.5-11.5,10.5s-11.5-4.78-11.5-10.5,5.07-10.5,11.5-10.5,11.5,4.78,11.5,10.5Z"/>
    <rect class="cls-3" x="11" y="12" width="23" height="27"/>
    <path class="cls-2" d="m13.13,25.2c-.81-.6-.81-1.81,0-2.41l15.23-11.34c.99-.74,2.4-.03,2.4,1.2v22.69c0,1.23-1.41,1.94-2.4,1.2l-15.23-11.34Z"/>
    <rect class="cls-3" x="9" y="15" width="15" height="18" rx="3" ry="3"/>
    <path class="cls-4" d="m14.66,14.19h7.5c1.24,0,2.25.85,2.25,1.9v15.2c0,1.05-1.01,1.9-2.25,1.9h-7.5c-1.24,0-2.25-.85-2.25-1.9v-15.2c0-1.05,1.01-1.9,2.25-1.9Z"/>
    <path class="cls-5" d="m3,2h61V0H3v2Zm62,1v44h2V3h-2Zm-1,45H3v2h61v-2Zm-62-1V3H0v44h2Zm1,1c-.55,0-1-.45-1-1H0c0,1.66,1.34,3,3,3v-2Zm62-1c0,.55-.45,1-1,1v2c1.66,0,3-1.34,3-3h-2Zm-1-45c.55,0,1,.45,1,1h2c0-1.66-1.34-3-3-3v2ZM3,0C1.34,0,0,1.34,0,3h2c0-.55.45-1,1-1V0Z"/>
  </g>
</svg>