<?xml version="1.0" encoding="UTF-8"?>
<svg id="Ebene_2" data-name="Ebene 2" xmlns="http://www.w3.org/2000/svg" viewBox="0 0 20.8 16.14">
  <defs>
    <style>
      .cls-1 {
        fill: #0147b1;
      }
    </style>
  </defs>
  <g id="Ebene_1-2" data-name="Ebene 1">
    <g id="layer3">
      <path id="path3715" class="cls-1" d="m8.7,16.07c-.23-.05-.8-.44-2.24-1.51l-1.94-1.44h-1.55c-.97,0-1.65-.03-1.83-.08-.38-.11-.81-.5-1-.88-.15-.3-.15-.41-.15-4.09,0-3.01.02-3.82.1-4.01.14-.34.46-.69.8-.87.28-.15.42-.16,2-.2l1.7-.04,1.74-1.3C8.45.07,8.57,0,9.11,0c.72,0,1.22.31,1.5.91l.17.37v6.79c0,6.75,0,6.8-.15,7.11-.19.4-.58.72-1.04.86-.4.12-.45.12-.89.02h0Zm.41-8.02c0-6.04,0-6.36-.13-6.3-.07.04-.76.55-1.54,1.13-1.31.98-1.41,1.08-1.37,1.25.02.11.04,1.87.04,3.92s-.02,3.81-.04,3.92c-.03.18.08.28,1.45,1.32.82.62,1.51,1.12,1.54,1.13.03,0,.05-2.86.05-6.36h0Zm-4.63,0v-3.4H1.66v6.8h2.82v-3.4Zm12.95,6.38v-.71s.4-.5.4-.5c1.67-2.08,2.28-4.91,1.62-7.63-.32-1.32-1.01-2.66-1.82-3.52-.21-.22-.21-.23-.19-.98l.02-.75.63.63c3.17,3.19,3.6,8.5,1.02,12.36-.35.52-1.5,1.8-1.62,1.8-.04,0-.06-.32-.06-.71h0Zm-3.33-1.25v-.67l.44-.44c.76-.75,1.24-1.57,1.55-2.62.62-2.13.01-4.46-1.55-6l-.44-.43v-.64c0-.35.02-.64.04-.64.11,0,.77.52,1.19.94,2.76,2.76,2.77,7.39,0,10.13-.3.3-.71.65-.89.78l-.34.23v-.67Zm-2.24-1.55c0-.74,0-.78.22-1.09,1.13-1.65,1.13-3.91,0-5.55-.22-.31-.22-.35-.22-1.11v-.78s.5.51.5.51c1.87,1.95,2.2,4.97.79,7.31-.28.46-1.12,1.47-1.22,1.47-.04,0-.07-.32-.07-.76h0Z"/>
    </g>
  </g>
</svg>