<?xml version="1.0" encoding="UTF-8" standalone="no"?>
<!-- Created with Inkscape (http://www.inkscape.org/) -->

<svg
   width="76.080025mm"
   height="59.018738mm"
   viewBox="0 0 22 22"
   version="1.1"
   id="svg5"
   xml:space="preserve"
   inkscape:export-filename="einstellungen.svg"
   inkscape:export-xdpi="96"
   inkscape:export-ydpi="96"
   xmlns:inkscape="http://www.inkscape.org/namespaces/inkscape"
   xmlns:sodipodi="http://sodipodi.sourceforge.net/DTD/sodipodi-0.dtd"
   xmlns="http://www.w3.org/2000/svg"
   xmlns:svg="http://www.w3.org/2000/svg"><sodipodi:namedview
     id="namedview7"
     pagecolor="#ffffff"
     bordercolor="#000000"
     borderopacity="0.25"
     inkscape:showpageshadow="2"
     inkscape:pageopacity="0.0"
     inkscape:pagecheckerboard="0"
     inkscape:deskcolor="#d1d1d1"
     inkscape:document-units="mm"
     showgrid="false" /><defs
     id="defs2" /><g
     inkscape:groupmode="layer"
     id="layer3"
     inkscape:label="Ebene 2"
     style="display:inline"
     transform="translate(-41.24635,-88.961011)"><path
       style="display:inline;fill:#0147b1;fill-opacity:1;stroke-width:0.264583"
       d="m 73.075867,147.72467 c -0.825688,-0.18517 -2.930279,-1.60516 -8.193013,-5.52792 l -7.081912,-5.27874 h -5.666911 c -3.535479,0 -6.052392,-0.11549 -6.691801,-0.30706 -1.372376,-0.41118 -2.966707,-1.81879 -3.643453,-3.21676 -0.538558,-1.11251 -0.552427,-1.48802 -0.552427,-14.95675 0,-10.99318 0.07289,-13.98952 0.356781,-14.66699 0.527506,-1.2588 1.683446,-2.5179 2.917647,-3.17802 1.011643,-0.54109 1.544497,-0.593286 7.308905,-0.716005 l 6.217708,-0.132369 6.35,-4.746742 c 7.752096,-5.794833 8.197387,-6.059451 10.155592,-6.03502 2.625513,0.03276 4.460779,1.152011 5.480711,3.342465 l 0.630402,1.353881 0.0026,24.85344 c 0.0026,24.67129 -0.0016,24.86182 -0.550338,25.99564 -0.70589,1.45817 -2.135156,2.63844 -3.794578,3.13352 -1.453094,0.43352 -1.660972,0.43886 -3.245897,0.0834 z m 1.507982,-29.3368 c 0,-22.103218 -0.02365,-23.279753 -0.463021,-23.040273 -0.254661,0.138801 -2.784739,1.998245 -5.622395,4.132097 -4.773753,3.589756 -5.149488,3.932486 -5.027084,4.585586 0.07276,0.38822 0.132292,6.83758 0.132292,14.3319 0,7.49432 -0.05953,13.94282 -0.132292,14.33 -0.12234,0.65101 0.275701,1.01286 5.291667,4.81055 2.983177,2.25862 5.513255,4.11473 5.622396,4.12469 0.10914,0.01 0.198437,-10.4636 0.198437,-23.27455 z m -16.933333,0.009 v -12.43542 h -5.159375 -5.159374 v 12.43542 12.43542 h 5.159374 5.159375 z m 47.363764,23.34948 0.003,-2.57969 1.46636,-1.82174 c 6.1254,-7.60997 8.3221,-17.94632 5.93097,-27.90766 -1.15573,-4.81471 -3.69591,-9.733124 -6.65781,-12.891155 -0.75589,-0.805948 -0.76472,-0.85164 -0.68981,-3.571875 l 0.0759,-2.755484 2.3026,2.321549 c 11.57979,11.675125 13.18478,31.092515 3.73753,45.217125 -1.27154,1.90108 -5.4909,6.56862 -5.93791,6.56862 -0.12898,0 -0.233,-1.16086 -0.23116,-2.57969 z m -12.174182,-4.59031 v -2.43292 l 1.607701,-1.5928 c 2.785785,-2.75998 4.553371,-5.75215 5.665881,-9.5912 2.25239,-7.7725 0.0447,-16.3163 -5.667963,-21.93501 l -1.605619,-1.57922 v -2.323382 c 0,-1.277863 0.06785,-2.323387 0.150765,-2.323387 0.413623,0 2.823192,1.898678 4.36327,3.438145 10.112817,10.108794 10.119197,27.015884 0.01397,37.061274 -1.107958,1.1014 -2.580015,2.38704 -3.271239,2.85698 l -1.256771,0.85444 v -2.43292 z m -8.202083,-5.68077 c 0,-2.69288 0.03033,-2.84068 0.817849,-3.9853 4.140401,-6.01787 4.140401,-14.285 0,-20.30287 -0.792232,-1.15147 -0.817584,-1.27836 -0.80944,-4.05144 l 0.0084,-2.86275 1.811059,1.88237 c 6.848314,7.11795 8.044976,18.16229 2.896158,26.72951 -1.013809,1.68691 -4.082205,5.38708 -4.467269,5.38708 -0.149768,0 -0.256763,-1.16537 -0.256763,-2.7966 z"
       id="path3715"
       inkscape:export-filename="lautstaerke.svg"
       inkscape:export-xdpi="96"
       inkscape:export-ydpi="96" /><path
       style="fill:#0147b1;fill-opacity:1;stroke-width:0.671617"
       d="m 176.75316,396.96053 c -3.71048,4.04744 -1.16459,10.13915 -1.91346,15.09941 0.13567,27.69544 -0.27139,55.47528 0.20361,83.11795 1.32168,5.94302 8.70379,3.34381 13.04915,3.89655 10.23973,-0.27146 20.64852,0.54434 30.7825,-0.40721 5.2493,-1.83582 2.6323,-8.64157 3.25765,-12.84554 -0.13567,-28.58952 0.27139,-57.26343 -0.2036,-85.80019 -1.32169,-5.94302 -8.70379,-3.34381 -13.04915,-3.89656 -10.23973,0.27147 -20.64852,-0.54433 -30.78251,0.40722 -0.44806,0.14279 -0.89613,0.28558 -1.34419,0.42837 z"
       id="path8154"
       transform="scale(0.26458333)" /><path
       style="fill:#0147b1;fill-opacity:1;stroke-width:0.671617"
       d="m 278.52918,356.34704 c -13.53819,9.56481 -26.85291,19.52883 -39.68219,30.02612 -5.24082,3.98068 -2.17007,11.25204 -2.98621,16.81494 0.13659,33.75567 -0.27203,67.59612 0.20361,101.29907 1.71023,4.88111 7.22545,7.23821 10.83132,10.70045 10.71182,8.07781 21.13871,16.68584 32.44286,23.88738 4.54668,1.20913 6.79243,-3.60093 6.15722,-7.38738 0.67121,-55.49136 0.705,-110.99826 0.0311,-166.4897 0.18346,-4.29341 -1.14657,-10.86995 -6.99767,-8.85088 z"
       id="path8156"
       transform="scale(0.26458333)" /></g></svg>
