<?xml version="1.0" encoding="UTF-8"?>
<svg id="Ebene_2" data-name="Ebene 2" xmlns="http://www.w3.org/2000/svg" viewBox="0 0 127.49 69.21">
  <defs>
    <style>
      .cls-1 {
        fill: #0147b1;
        stroke: #0147b1;
        stroke-miterlimit: 10;
        stroke-width: 2px;
      }
    </style>
  </defs>
  <g id="Ebene_1-2" data-name="Ebene 1">
    <g id="Ebene_1-2" data-name="Ebene 1-2">
      <g>
        <path class="cls-1" d="m10.7,66.81c-2.94,0-5.89-.02-8.83.01-.67,0-.83-.21-.85-.86-.33-15.41,4.05-29.29,13.74-41.33C24.52,12.51,37.08,4.88,52.42,2.1c14.12-2.56,27.74-.73,40.39,6.11,18.68,10.11,29.75,25.78,33.07,46.83.57,3.64.61,7.31.61,10.98,0,.63-.19.8-.81.8-5.89-.02-11.77-.03-17.66,0-.7,0-.84-.24-.82-.87.04-1.42.05-2.85,0-4.27-.03-.75.21-.96.95-.95,3.73.04,7.47-.02,11.2.04.89.01,1.04-.25.97-1.06-1.04-12.54-5.63-23.58-13.83-33.13-.45-.52-.68-.61-1.21-.07-2.68,2.74-5.41,5.42-8.1,8.15-.42.42-.66.5-1.11.02-1.03-1.11-2.11-2.19-3.22-3.22-.49-.45-.38-.7.03-1.11,2.7-2.67,5.36-5.38,8.08-8.03.61-.59.51-.85-.08-1.34-9.23-7.87-19.85-12.45-31.93-13.61-2.17-.21-2.17-.2-2.17,1.98,0,3.39-.02,6.77.01,10.16,0,.67-.19.86-.85.84-1.45-.05-2.91-.06-4.37,0-.75.03-.88-.24-.87-.92.03-3.77,0-7.53.03-11.3,0-.74-.16-.97-.94-.91-12.64,1.02-23.77,5.64-33.37,13.93-.45.39-.46.59-.03,1.02,2.75,2.71,5.46,5.46,8.21,8.17.48.47.48.73,0,1.18-1.07.99-2.1,2.02-3.09,3.09-.48.52-.74.53-1.25.01-2.66-2.71-5.37-5.37-8.03-8.08-.51-.52-.74-.51-1.21.04-7.89,9.21-12.5,19.82-13.69,31.9-.22,2.26-.21,2.27,2.04,2.28,3.29.01,6.58.04,9.87-.02.91-.02,1.1.28,1.07,1.11-.06,1.36-.06,2.72,0,4.08.03.7-.16.92-.89.91-2.91-.04-5.82-.02-8.73-.02h.01Z"/>
        <path class="cls-1" d="m91.53,35.66c-.27.8-.74,1.34-1.18,1.89-3.62,4.68-7.53,9.11-11.43,13.56-2.79,3.19-5.62,6.34-8.46,9.48-.37.41-.48.82-.47,1.36,0,3.23-2.48,5.98-5.6,6.23-3.41.27-6.26-1.9-6.83-5.21-.54-3.15,1.51-6.25,4.68-7.05.4-.1.84-.23,1.21-.15,1.22.26,1.99-.41,2.84-1.1,7.13-5.81,14.32-11.55,21.76-16.97.97-.71,1.95-1.4,3.02-1.96.1-.05.23-.05.46-.09h0Z"/>
      </g>
    </g>
  </g>
</svg>