<?xml version="1.0" encoding="UTF-8" standalone="no"?>
<!-- Created with Inkscape (http://www.inkscape.org/) -->

<svg
   width="133.93417mm"
   height="176.19263mm"
   viewBox="0 0 22 22"
   version="1.1"
   id="svg5"
   xml:space="preserve"
   inkscape:export-filename="einstellungen.svg"
   inkscape:export-xdpi="96"
   inkscape:export-ydpi="96"
   xmlns:inkscape="http://www.inkscape.org/namespaces/inkscape"
   xmlns:sodipodi="http://sodipodi.sourceforge.net/DTD/sodipodi-0.dtd"
   xmlns="http://www.w3.org/2000/svg"
   xmlns:svg="http://www.w3.org/2000/svg"><sodipodi:namedview
     id="namedview7"
     pagecolor="#ffffff"
     bordercolor="#000000"
     borderopacity="0.25"
     inkscape:showpageshadow="2"
     inkscape:pageopacity="0.0"
     inkscape:pagecheckerboard="0"
     inkscape:deskcolor="#d1d1d1"
     inkscape:document-units="mm"
     showgrid="false" /><defs
     id="defs2" /><g
     inkscape:groupmode="layer"
     id="layer4"
     inkscape:label="Ebene 3"
     transform="translate(-33.940858,-49.40444)"><path
       style="fill:#0147b1;fill-opacity:1;stroke-width:0.0961735"
       d="m 107.69751,222.52895 c 0.0343,-1.68743 0.0888,-3.78629 0.1213,-4.66415 l 0.059,-1.59611 1.91975,-0.0641 c 1.05586,-0.0353 2.70772,-0.12804 3.67078,-0.20615 13.29497,-1.07828 26.09979,-6.32009 36.36143,-14.88497 3.43745,-2.86907 6.8007,-6.33438 9.42949,-9.71564 0.47606,-0.61233 0.89821,-1.11607 0.93812,-1.11944 0.0399,-0.003 0.34286,0.18106 0.67322,0.4098 0.33035,0.22875 2.00719,1.35964 3.72629,2.51309 1.7191,1.15343 3.18278,2.15019 3.25262,2.21501 0.10333,0.0959 -0.0831,0.38464 -1.00097,1.55025 -3.42017,4.34337 -6.90057,7.94706 -10.91095,11.29746 -9.55056,7.97883 -21.03457,13.46893 -33.17619,15.86037 -4.23998,0.83511 -8.16892,1.26257 -12.92477,1.4062 l -2.20143,0.0665 z m -4.38125,2.85335 c -0.45958,-0.0324 -0.86611,-0.0895 -0.90342,-0.1268 -0.0373,-0.0373 0.10006,-2.12704 0.30525,-4.64384 l 0.37308,-4.57603 1.10737,0.066 c 0.60906,0.0363 1.12185,0.0785 1.13952,0.0938 0.0177,0.0153 -0.0148,1.86981 -0.0721,4.12119 -0.0573,2.25137 -0.10427,4.33229 -0.10427,4.62426 v 0.53086 l -0.50491,-0.0152 c -0.2777,-0.008 -0.88092,-0.0418 -1.34049,-0.0742 z m -4.550138,-0.4471 c -1.76425,-0.23698 -4.156193,-0.63737 -4.285659,-0.71737 -0.102918,-0.0636 0.03787,-0.95879 0.720611,-4.5819 0.466685,-2.47656 0.855769,-4.51197 0.864629,-4.52314 0.0089,-0.0112 0.468606,0.0607 1.021657,0.15964 0.55305,0.099 1.579619,0.2552 2.281262,0.34717 l 1.275718,0.16721 -0.0523,0.44253 c -0.0634,0.53642 -0.719923,8.46609 -0.719923,8.69536 0,0.0893 -0.03246,0.15726 -0.07213,0.15102 -0.03967,-0.006 -0.504911,-0.0695 -1.033865,-0.14052 z m -8.415185,-1.59362 c -1.55797,-0.39425 -5.276693,-1.47981 -5.650196,-1.64939 -0.119014,-0.054 -0.21639,-0.12413 -0.21639,-0.15574 0,-0.0316 0.133572,-0.42499 0.296828,-0.87417 0.163255,-0.44918 0.376302,-1.05471 0.473437,-1.34564 0.09714,-0.29092 0.284785,-0.8319 0.416996,-1.20217 0.132213,-0.37027 0.418106,-1.17091 0.63532,-1.77921 0.217214,-0.6083 0.573393,-1.62533 0.791511,-2.26008 0.218118,-0.63474 0.401465,-1.16196 0.40744,-1.17157 0.006,-0.01 0.767571,0.21045 1.692435,0.48906 0.924866,0.27861 2.265828,0.65054 2.979916,0.8265 0.714089,0.17598 1.32932,0.34609 1.367182,0.37802 0.06078,0.0513 -1.586031,9.01407 -1.670386,9.09111 -0.01837,0.0168 -0.704214,-0.13924 -1.524093,-0.34672 z m -9.956725,-3.24803 c -2.52257,-1.02253 -6.296603,-2.79272 -6.296603,-2.95338 0,-0.0326 0.3616,-0.73558 0.803556,-1.56214 0.441955,-0.82656 1.270055,-2.39005 1.840222,-3.4744 1.040394,-1.97865 1.589057,-3.00364 1.637662,-3.0594 0.01435,-0.0165 0.510588,0.21305 1.102754,0.51004 1.222377,0.61304 3.12016,1.45797 4.640493,2.06604 1.165154,0.466 1.122895,0.38407 0.720477,1.39696 -0.105074,0.26448 -0.246826,0.65398 -0.315005,0.86557 -0.06818,0.21158 -0.302785,0.88239 -0.52135,1.49069 -0.218565,0.60829 -0.47769,1.34402 -0.575834,1.63495 -0.51681,1.53196 -1.272759,3.61525 -1.334103,3.67659 -0.03854,0.0385 -0.804566,-0.22764 -1.702269,-0.59152 z m -10.192978,-5.06089 c -2.910607,-1.73944 -7.508644,-4.95114 -7.419797,-5.18267 0.02386,-0.0622 1.30787,-1.69735 2.85335,-3.63369 l 2.809963,-3.52064 1.071263,0.79487 c 1.601196,1.18807 3.328644,2.34251 5.090662,3.40206 l 1.576385,0.94792 -0.422696,0.80918 c -0.232483,0.44504 -0.780467,1.47997 -1.217743,2.29985 -0.437275,0.81988 -0.951531,1.79364 -1.142789,2.16391 -0.74391,1.44018 -1.498229,2.7837 -1.577794,2.81023 -0.04586,0.0153 -0.775218,-0.38568 -1.620804,-0.89102 z m -10.301305,-7.41312 c -2.59355,-2.21881 -5.529995,-5.13553 -7.739874,-7.6879 -1.3892,-1.6045 -2.685728,-3.25196 -2.610182,-3.3167 0.14731,-0.1262 7.09668,-5.34636 7.199903,-5.40833 0.06266,-0.0376 0.303689,0.18573 0.57663,0.53435 2.216037,2.83052 6.139717,6.87152 8.869076,9.13427 l 0.318853,0.26434 -2.880463,3.60507 -2.880462,3.60506 z M 47.10386,193.41615 c -3.708908,-5.36576 -6.887994,-11.6053 -8.951981,-17.56995 -0.873506,-2.52431 -1.103949,-3.28553 -1.019709,-3.36837 0.07685,-0.0756 0.687119,-0.25609 2.246791,-0.6646 0.34382,-0.09 1.956995,-0.52396 3.584833,-0.96424 1.627837,-0.44029 2.973263,-0.78356 2.989837,-0.76281 0.01657,0.0207 0.336828,0.94654 0.711677,2.05734 1.896609,5.62029 4.378576,10.63312 7.68461,15.52062 0.550345,0.81361 0.988284,1.488 0.973196,1.49864 -0.02742,0.0193 -7.056003,5.30457 -7.243349,5.44672 -0.06018,0.0457 -0.443314,-0.42284 -0.975905,-1.19335 z M 35.443436,166.11078 c -1.71292,-7.97824 -1.971343,-17.20835 -0.723708,-25.84879 0.219951,-1.52327 0.881361,-5.09597 0.958512,-5.17755 0.02351,-0.0249 2.499786,0.72793 3.316026,1.00807 0.07934,0.0272 1.375192,0.43664 2.879663,0.9098 1.504472,0.47316 2.749134,0.87402 2.765918,0.8908 0.01678,0.0168 -0.05325,0.43763 -0.155632,0.93522 -1.291092,6.27488 -1.57894,13.20469 -0.824562,19.85089 0.190164,1.67539 0.60281,4.37039 0.870401,5.68464 0.06783,0.33315 0.155223,0.28297 -1.063718,0.61086 -0.370268,0.0996 -0.932883,0.2519 -1.250256,0.33846 -0.317373,0.0866 -0.879988,0.23852 -1.250256,0.33769 -1.948733,0.52196 -5.004219,1.35068 -5.146892,1.39596 -0.138164,0.0439 -0.196138,-0.10067 -0.375496,-0.93605 z m 7.926727,-34.42444 c -2.452772,-0.782 -2.974004,-0.94626 -5.001025,-1.57603 -0.634745,-0.19721 -1.185959,-0.38645 -1.224919,-0.42054 -0.09068,-0.0794 1.073187,-3.54046 1.89636,-5.63939 3.421701,-8.72467 8.397633,-16.62804 14.824299,-23.54572 l 0.715208,-0.769855 2.714739,2.784055 c 1.493105,1.53123 2.989694,3.07401 3.325751,3.4284 l 0.611012,0.64436 -1.000557,1.08677 c -5.987111,6.50299 -10.730466,14.54315 -13.56328,22.99027 -0.435504,1.29862 -0.645098,1.80057 -0.74899,1.79373 -0.07934,-0.005 -1.226212,-0.35444 -2.548598,-0.77605 z M 159.07982,110.99112 C 150.56978,100.31231 138.80667,92.525688 125.71102,88.902579 112.09293,85.134925 97.666729,85.85428 84.628611,90.951132 79.445961,92.977129 74.061791,95.93822 69.706743,99.157597 L 68.633865,99.9507 65.306804,96.552802 c -1.829884,-1.868843 -3.327061,-3.437043 -3.327061,-3.484889 0,-0.04785 0.799588,-0.685051 1.776864,-1.416012 l 1.776865,-1.32902 -0.406392,-0.451993 C 64.903564,89.622292 62.448589,86.96559 59.671578,83.967106 56.153034,80.16795 54.557246,78.377332 54.407314,78.060124 54.002089,77.202801 54.186962,76.217811 54.8752,75.567256 c 0.178369,-0.168604 2.76952,-1.644227 5.758113,-3.279161 2.988593,-1.634936 6.321006,-3.46094 7.405363,-4.057787 1.084356,-0.596848 2.139292,-1.144477 2.3443,-1.216952 1.122855,-0.396961 2.364154,0.164384 2.79229,1.262741 0.08247,0.211582 0.49394,1.661398 0.914369,3.221814 0.692693,2.570915 1.47806,5.474252 2.757635,10.194395 0.250938,0.92567 0.488567,1.720431 0.528065,1.766135 0.0395,0.0457 0.735524,-0.199667 1.546727,-0.545267 7.182903,-3.060163 14.63461,-4.945053 22.512878,-5.694574 l 0.64917,-0.06176 -1.9e-4,-3.190115 c -1e-4,-1.754564 -0.0287,-4.261249 -0.0635,-5.570411 l -0.0633,-2.380295 -2.7015,-9.62e-4 c -2.636472,-9.62e-4 -2.713243,-0.0064 -3.189186,-0.228027 -0.590269,-0.274857 -1.02077,-0.772801 -1.231056,-1.423915 -0.138272,-0.428136 -0.156397,-1.219756 -0.154534,-6.749303 0.002,-5.897339 0.01257,-6.286814 0.180604,-6.648974 0.224204,-0.483219 0.712716,-0.95181 1.211801,-1.162386 0.503816,-0.212573 0.446708,-0.211205 14.048741,-0.336596 9.41734,-0.08682 11.52703,-0.08311 11.87405,0.02086 0.24063,0.0721 0.59521,0.292886 0.82504,0.513757 0.70148,0.674092 0.69389,0.59416 0.72605,7.648427 0.0257,5.641381 0.0136,6.235854 -0.13336,6.563806 -0.27295,0.608901 -0.64909,1.018229 -1.16688,1.269838 -0.46971,0.228249 -0.61084,0.24406 -2.73134,0.306013 l -2.23604,0.06533 v 5.7969 c 0,5.438605 0.0104,5.799844 0.16831,5.844512 0.0926,0.02619 0.40633,0.07612 0.69726,0.110959 4.75317,0.569241 11.73058,2.34293 16.39758,4.168337 0.65922,0.257838 0.98076,0.341871 1.02221,0.267144 0.0333,-0.05996 0.30667,-1.017859 0.6076,-2.128664 0.30092,-1.110804 0.89041,-3.285528 1.31,-4.83272 0.41958,-1.547192 1.10977,-4.100599 1.53376,-5.674239 0.424,-1.573639 0.83837,-3.034275 0.92085,-3.245857 0.42813,-1.098357 1.66944,-1.659702 2.79229,-1.262741 0.205,0.07247 1.25994,0.620104 2.3443,1.216952 1.08435,0.596847 4.41677,2.422851 7.40536,4.057787 2.98859,1.634934 5.57975,3.110557 5.75811,3.279161 0.68824,0.650555 0.87311,1.635545 0.46789,2.492868 -0.14993,0.317208 -1.74572,2.107826 -5.26426,5.906982 -2.77702,2.998484 -5.23394,5.657357 -5.45984,5.908606 l -0.41073,0.456818 1.66098,1.103623 c 2.66784,1.772612 4.93532,3.495351 7.67183,5.828732 1.69728,1.447247 5.90662,5.656133 7.3656,7.364813 1.92203,2.25098 3.36998,4.06478 3.29577,4.12849 -0.0636,0.0546 -4.25431,2.8758 -6.02474,4.05588 l -1.75893,1.1724 -0.70091,-0.87953 z"
       id="path6945" /></g></svg>
